<svg id="Capa_1" enable-background="new 0 0 512 512" height="512" viewBox="0 0 512 512" width="512" xmlns="http://www.w3.org/2000/svg"><g><g><path d="m40.633 70.017c0-18.299 14.834-33.133 33.133-33.133h24.85c4.575 0 8.283 3.709 8.283 8.283v24.85c0 18.299-14.834 33.133-33.133 33.133h-33.133z" fill="#b3e59f"/><g><path d="m24.066 127.217c-1.919 0-3.839-.732-5.304-2.197-2.929-2.929-2.929-7.678 0-10.606l49.7-49.7c2.93-2.929 7.678-2.929 10.607 0s2.929 7.678 0 10.606l-49.7 49.7c-1.464 1.464-3.384 2.197-5.303 2.197z" fill="#f4e0c3"/></g><path d="m98.617 36.883h-23c4.575 0 8.283 3.709 8.283 8.283v24.85c0 18.299-14.834 33.133-33.133 33.133h23c18.299 0 33.133-14.834 33.133-33.133v-24.85c0-4.574-3.709-8.283-8.283-8.283z" fill="#95d6a4"/></g><g><path d="m438.233 417.917c0-18.299 14.834-33.133 33.133-33.133h24.85c4.575 0 8.283 3.709 8.283 8.283v24.85c0 18.299-14.834 33.133-33.133 33.133h-33.133z" fill="#b3e59f"/><g><path d="m421.667 475.117c-1.919 0-3.839-.732-5.304-2.197-2.929-2.929-2.929-7.678 0-10.606l49.7-49.7c2.93-2.929 7.678-2.929 10.607 0s2.929 7.678 0 10.606l-49.7 49.7c-1.465 1.464-3.385 2.197-5.303 2.197z" fill="#f7e3c1"/></g><path d="m496.217 384.783h-23c4.575 0 8.283 3.709 8.283 8.283v24.85c0 18.299-14.834 33.133-33.133 33.133h23c18.299 0 33.133-14.834 33.133-33.133v-24.85c0-4.574-3.709-8.283-8.283-8.283z" fill="#95d6a4"/></g><g><g><path d="m222.866 193.483h-198.8c-4.143 0-7.5-3.358-7.5-7.5s3.357-7.5 7.5-7.5h198.8c23.27 0 42.2-18.931 42.2-42.2s-18.931-42.2-42.2-42.2c-23.268 0-42.199 18.931-42.199 42.2 0 4.142-3.357 7.5-7.5 7.5s-7.5-3.358-7.5-7.5c0-31.54 25.659-57.2 57.199-57.2s57.2 25.66 57.2 57.2c0 31.541-25.66 57.2-57.2 57.2z" fill="#cbe2ff"/></g><g><path d="m421.667 259.75h-414.167c-4.143 0-7.5-3.358-7.5-7.5s3.357-7.5 7.5-7.5h414.167c41.539 0 75.333-33.794 75.333-75.333s-33.794-75.333-75.333-75.333-75.334 33.794-75.334 75.333c0 4.142-3.357 7.5-7.5 7.5s-7.5-3.358-7.5-7.5c0-49.81 40.523-90.333 90.334-90.333 49.81 0 90.333 40.523 90.333 90.333s-40.523 90.333-90.333 90.333z" fill="#ecf4ff"/></g><g><path d="m338.833 425.417c-31.54 0-57.199-25.66-57.199-57.2 0-4.142 3.357-7.5 7.5-7.5s7.5 3.358 7.5 7.5c0 23.269 18.931 42.2 42.199 42.2 23.27 0 42.2-18.931 42.2-42.2s-18.931-42.2-42.2-42.2h-232.969c-4.143 0-7.5-3.358-7.5-7.5s3.357-7.5 7.5-7.5h232.969c31.54 0 57.2 25.66 57.2 57.2s-25.66 57.2-57.2 57.2z" fill="#cbe2ff"/></g><g><path d="m74.802 326.017h-67.302c-4.143 0-7.5-3.358-7.5-7.5s3.357-7.5 7.5-7.5h67.302c4.142 0 7.5 3.358 7.5 7.5s-3.358 7.5-7.5 7.5z" fill="#cbe2ff"/></g><g><path d="m107.936 392.283h-50.736c-4.143 0-7.5-3.358-7.5-7.5s3.357-7.5 7.5-7.5h50.735c4.143 0 7.5 3.358 7.5 7.5.001 4.142-3.357 7.5-7.499 7.5z" fill="#ecf4ff"/></g><g><path d="m239.434 392.283h-100.436c-4.143 0-7.5-3.358-7.5-7.5s3.357-7.5 7.5-7.5h100.436c4.143 0 7.5 3.358 7.5 7.5s-3.358 7.5-7.5 7.5z" fill="#ecf4ff"/></g></g></g></svg>